<svg width="441" height="48" viewBox="0 0 441 48" xmlns="http://www.w3.org/2000/svg" xmlns:xlink="http://www.w3.org/1999/xlink"><defs><path d="M69.143737.0016201v34.1545627c0 4.557902-1.3029616 8.0384326-3.9006728 10.4415918C62.8533888 46.8659249 59.5549251 48 55.3504104 48c-3.336786 0-6.210966-.7830519-8.6198026-2.3464555-2.1186812-1.3608901-3.7829683-3.2429148-5.0038104-5.6487742l6.0686257-3.7073456c.9443734 1.6795113 1.907908 2.913493 2.8988158 3.7073456 1.2153675.9315617 2.6551948 1.3959925 4.3112699 1.3959925 4.4344491 0 6.654411-2.459863 6.654411-7.3822891V.0016201h7.4838172zM13.2075413 0c7.6781665 0 13.875446 2.1682436 18.5863638 6.4993306 4.6890193 4.3553885 7.037635 10.0932687 7.037635 17.2109402 0 7.0987703-2.3239798 12.8042483-6.9664648 17.1110336-4.7163925 4.37699-10.9328332 6.5641349-18.657534 6.5641349H0V0zM88 .00108v47.3827392h-7.412647V.0010801H88zM12.7268689 6.5006808H7.4849121V40.922561h5.2419568c6.0220914 0 10.6317286-1.6093066 13.8261743-4.8279198 3.0110457-3.0160998 4.5165686-7.1446734 4.5165686-12.3830204 0-5.2599485-1.5055229-9.3993227-4.5165686-12.4154225-3.1944457-3.1970118-7.8040829-4.7955177-13.8261743-4.7955177z" id="a"/><path d="M18.1373836 48c5.2150817 0 9.4629828-1.3961181 12.7382079-4.185654C34.2909479 40.889789 36 36.9660759 36 32.0459072c0-4.1964557-1.3848267-7.6313924-4.1544802-10.310211C29.1912685 19.1729958 25.74294 17.6877637 21.4950389 17.28c0 .0486076.2885056-.2268354.8655167-.8155274.7391238-.7021097 1.4205465-1.452827 2.0442681-2.2467511L35.0987635.6481013V0H4.2588918v6.4999156H19.349107c.7171424 0 1.5826591-.0486076 2.5965502-.140422l1.3161349-.135021-.8655167.8533333c-.670432.6535021-1.2117234 1.247595-1.6266219 1.766076L9.6580675 22.9292827l.3462067.6454008c.7611051-.2916455 1.684323-.5454852 2.7696534-.7480168 1.3600977-.2511393 2.7449245-.3753587 4.1544803-.3753587 7.6137994 0 11.4220729 3.1081857 11.4220729 9.3218566 0 6.3756962-3.5197679 9.5594936-10.5565562 9.5594936-2.7256907 0-5.1024271-.691308-7.1329568-2.073924-1.7530148-1.1800844-3.184552-2.7922363-4.2918638-4.8310549L0 37.6951899c1.4535186 3.0568776 3.7725538 5.5223628 6.9571058 7.3775527C10.281789 47.0278481 14.0076324 48 18.1373836 48" id="b"/><path d="M96.4087502 0c6.6257508 0 12.1941168 2.2115208 16.6998378 6.6345623C117.703739 11.1966595 120 16.988865 120 24.016527c0 7.0089431-2.296261 12.7931261-6.891412 17.3525492-4.505721 4.4230415-10.074087 6.6372364-16.6998378 6.6372364-6.6494236 0-12.2177897-2.2141949-16.7024681-6.6372364-4.616194-4.5594231-6.9256061-10.3436061-6.9256061-17.3525492 0-7.0276621 2.3094121-12.8198676 6.9256061-17.3819648C84.1909605 2.2115208 89.7593266 0 96.4087502 0zM12.2256806.5375038c10.7579676 0 16.1369515 4.6717374 16.1369515 14.0125378 0 9.3006883-5.3789839 13.9510324-16.1369515 13.9510324H2.7828679v18.9650608H0V.5375038zm37.0821095 0c4.947613 0 8.8246898 1.1686029 11.6286002 3.5058086 2.9170138 2.4013853 4.3742055 5.834992 4.3742055 10.3088423 0 6.8484941-3.3247118 11.1939853-9.9741353 13.0364736L66.933497 47.4661348h-3.3115602L52.4220771 27.923458l-1.5255798.1390557-11.1656657.0320898v19.3715313h-2.7828679V.5375038zM96.4087502 2.55916c-5.9445005 0-10.8921135 2.0457236-14.8454693 6.1318224-3.9559862 4.0647056-5.9313489 9.1750033-5.9313489 15.3255447 0 6.1318224 1.9753627 11.2447942 5.9313489 15.330893 3.9533558 4.088773 8.9009688 6.1318224 14.8454693 6.1318224 5.9418698 0 10.8789618-2.0430494 14.8112748-6.1318224 3.953356-4.0860988 5.931349-9.1990706 5.931349-15.330893 0-6.1505414-1.977993-11.2608391-5.931349-15.3255447-3.932313-4.0860988-8.869405-6.1318223-14.8112748-6.1318223zm-84.4802946.4733243H2.7828679v22.9736093h9.1455877c9.0561571 0 13.5855508-3.8160099 13.5855508-11.456052 0-7.6801543-4.5293937-11.5175573-13.5855508-11.5175573zm37.1136732 0h-9.3112972v22.5698128h9.3112972c8.9456841 0 13.4198413-3.7491561 13.4198413-11.2501424 0-7.546447-4.4741572-11.3196704-13.4198413-11.3196704z" id="c"/></defs><g fill="#141414" fill-rule="evenodd"><use xlink:href="#a" transform="translate(.666667)"/><path d="M112.666667 47.5280711h7.0182697V23.1057483c0-1.0591587-.0457479-2.4883526-.1372437-4.2902631l-.1345528-2.4320429 1.5258279 2.16122c1.0172185 1.4640523 1.8971933 2.6143791 2.6426153 3.4456176l11.8675497 14.2543992h.8126984l11.8998423-14.2543992c.7669505-.8312385 1.681909-2.0030166 2.7448755-3.512653l1.4585514-2.0941846-.1372437 2.4320429c-.0888048 1.8019105-.1345528 3.2311044-.1345528 4.2902631v24.4223228h7.0182698V0h-.7454221L135.990035 26.280543 113.4470728 0h-.7804058v47.5280711zm57.8495953 0h7.2873752V.4719289h-7.2873752v47.0561422zM223.489667 48h.914959V.471929h-6.81375v25.8756493c0 1.1047428.099569 2.5580694.304089 4.3572985 0 .3378582.021529.6649908.067276.9813977 0 .2681415.021529.5282387.067277.7749288l.069967.6757164-1.525828-1.9252555c-1.17599-1.4399196-2.125932-2.555388-2.849826-3.3437239L187.6878801 0h-.9822349v47.5280711h6.8137496V21.5853863c0-1.1932294-.0672763-2.6894587-.201829-4.4913692l-.3067802-2.2979722 1.5258278 1.8903972c1.1759907 1.4184682 2.1474614 2.5446623 2.9171029 3.3785822L223.489667 48zm9.889625-.4719289h7.287375V.4719289h-7.287375v47.0561422z"/><use xlink:href="#b" transform="translate(260.666667)"/><use xlink:href="#c" transform="translate(320.666667)"/></g></svg>